<svg xmlns="http://www.w3.org/2000/svg" data-name="Layer 1" viewBox="0 -6 100 125" x="0px" y="0px"><title>Artboard 44</title><path d="M26,81H50a7,7,0,0,0,7-7V58a7,7,0,0,0-7-7H41.9L38,47.05A7,7,0,0,0,33,45H26a7,7,0,0,0-7,7V74A7,7,0,0,0,26,81ZM25,52a1,1,0,0,1,1-1h7a1,1,0,0,1,.71.29l5.41,5.41a1,1,0,0,0,.71.29H50a1,1,0,0,1,1,1V74a1,1,0,0,1-1,1H26a1,1,0,0,1-1-1Z"/><path d="M70,70H68a3,3,0,0,0,0,6h2A11,11,0,0,0,81,65V30A11,11,0,0,0,70,19H35A11,11,0,0,0,24,30v4a3,3,0,0,0,6,0V30a5,5,0,0,1,5-5H70a5,5,0,0,1,5,5V65A5,5,0,0,1,70,70Z"/></svg>