<svg xmlns="http://www.w3.org/2000/svg" viewBox="-25.6 -51.2 563.2 691.2" x="0px" y="0px"><g><path d="M428.97,299.1211l-28.0581-19.79a146.5115,146.5115,0,0,0,0-46.6622L428.97,212.8755a30.7962,30.7962,0,0,0,8.9654-40.7593L419.6113,140.38a30.8035,30.8035,0,0,0-39.7851-12.6158L348.521,142.2329a145.2922,145.2922,0,0,0-40.2671-23.3481L305.14,84.6436A30.7945,30.7945,0,0,0,274.32,56.5H237.68a30.7945,30.7945,0,0,0-30.82,28.1436l-3.1138,34.2412a145.2922,145.2922,0,0,0-40.2671,23.3481l-31.3052-14.4648A30.8094,30.8094,0,0,0,92.3853,140.38L74.0684,172.1162A30.7917,30.7917,0,0,0,83.03,212.8755l28.0581,19.7934a146.5115,146.5115,0,0,0,0,46.6622L83.03,299.1211A30.7962,30.7962,0,0,0,74.0649,339.88l18.3238,31.7358a30.823,30.823,0,0,0,39.7851,12.6192l31.3052-14.4717a145.3179,145.3179,0,0,0,40.2671,23.3515L206.86,427.353A30.7948,30.7948,0,0,0,237.68,455.5H274.32a30.7948,30.7948,0,0,0,30.82-28.147l3.1138-34.2378a145.3179,145.3179,0,0,0,40.2671-23.3515l31.3052,14.4717a30.81,30.81,0,0,0,39.7885-12.6192L437.9316,339.88A30.7917,30.7917,0,0,0,428.97,299.1211ZM419.7446,329.38l-18.3169,31.7358a9.8911,9.8911,0,0,1-12.79,4.0537L351.2212,347.875a10.518,10.518,0,0,0-11.4126,1.7124,124.79,124.79,0,0,1-44.6694,25.9014,10.4942,10.4942,0,0,0-7.188,9.0268l-3.7222,40.937A9.9016,9.9016,0,0,1,274.32,434.5H237.68a9.9016,9.9016,0,0,1-9.9087-9.0474l-3.7222-40.937a10.4942,10.4942,0,0,0-7.188-9.0268,124.79,124.79,0,0,1-44.6694-25.9014,10.5066,10.5066,0,0,0-11.4126-1.7124L123.3623,365.17a9.8969,9.8969,0,0,1-12.7866-4.0537L92.252,329.38a9.8981,9.8981,0,0,1,2.8847-13.1011l33.5508-23.6626a10.4989,10.4989,0,0,0,4.2246-10.729,125.7615,125.7615,0,0,1,0-51.7754,10.4989,10.4989,0,0,0-4.2246-10.729l-33.5508-23.666a9.8937,9.8937,0,0,1-2.8813-13.1011L110.5723,150.88a9.9074,9.9074,0,0,1,12.79-4.05l37.4165,17.2915a10.5117,10.5117,0,0,0,11.4126-1.7124,124.7721,124.7721,0,0,1,44.6694-25.898,10.4942,10.4942,0,0,0,7.188-9.0268l3.7222-40.94A9.9013,9.9013,0,0,1,237.68,77.5H274.32a9.9013,9.9013,0,0,1,9.9087,9.0439l3.7222,40.9405a10.4942,10.4942,0,0,0,7.188,9.0268,124.7721,124.7721,0,0,1,44.6694,25.898,10.5117,10.5117,0,0,0,11.4126,1.7124l37.4165-17.2949a9.8992,9.8992,0,0,1,12.7866,4.0537l18.3237,31.7358a9.8981,9.8981,0,0,1-2.8847,13.1011l-33.5508,23.666a10.4989,10.4989,0,0,0-4.2246,10.729,125.7615,125.7615,0,0,1,0,51.7754,10.4989,10.4989,0,0,0,4.2246,10.729l33.5508,23.6626A9.8937,9.8937,0,0,1,419.7446,329.38Z"/><path d="M256,175.5A80.5,80.5,0,1,0,336.5,256,80.5894,80.5894,0,0,0,256,175.5Zm0,140A59.5,59.5,0,1,1,315.5,256,59.5665,59.5665,0,0,1,256,315.5Z"/></g></svg>